<?xml version="1.0" encoding="UTF-8"?>
<svg xmlns="http://www.w3.org/2000/svg" version="1.1" viewBox="0 0 311.81 294.8">
  <!-- Generator: Adobe Illustrator 30.4.0, SVG Export Plug-In . SVG Version: 2.1.4 Build 226)  -->
  <defs>
    <style>
      .st0 {
        fill: #231815;
      }

      .st1 {
        fill: #fff;
      }

      .st2 {
        fill: #1a0b08;
      }

      .st3 {
        fill: #2bd8c2;
      }

      .st4 {
        fill: none;
        stroke: #e4007f;
        stroke-width: .3px;
      }
    </style>
  </defs>
  <g id="_인쇄영역" data-name="인쇄영역">
    <g id="_x3C_Rectangle_x3E_">
      <path id="_x3C_Rectangle_x3E_1" data-name="_x3C_Rectangle_x3E_" class="st3" d="M131.47,24.02v243.78h153.07V24.02h-153.07ZM207.94,220.24c-28.18,0-51.02-22.84-51.02-51.02s22.84-51.02,51.02-51.02,51.02,22.84,51.02,51.02-22.84,51.02-51.02,51.02Z"/>
      <circle class="st1" cx="207.94" cy="169.22" r="51.02" transform="translate(3.61 342.77) rotate(-79.48)"/>
    </g>
    <g>
      <path class="st0" d="M151.91,107.37h-1.33v-5.11h-.04l-1.46.92v-1.18l1.58-1h1.25v6.37Z"/>
      <path class="st0" d="M155.9,107.37h-1.33v-5.11h-.04l-1.46.92v-1.18l1.58-1h1.25v6.37Z"/>
      <path class="st0" d="M164.35,107.37h-1.15l-2.8-4.05h-.05v4.05h-1.32v-6.37h1.17l2.78,4.05h.06v-4.05h1.32v6.37Z"/>
      <path class="st0" d="M164.96,104.99c0-1.48.9-2.47,2.35-2.47s2.34.99,2.34,2.47-.9,2.47-2.34,2.47-2.35-.99-2.35-2.47ZM167.32,106.45c.67,0,1.01-.62,1.01-1.46s-.35-1.47-1.01-1.47-1.03.63-1.03,1.47.35,1.46,1.03,1.46Z"/>
      <path class="st0" d="M172.85,107.37h-1.47l-1.67-4.78h1.38l1,3.44h.05l1-3.44h1.38l-1.67,4.78Z"/>
      <path class="st0" d="M176.76,106.41l2.29-2.11c.59-.57.91-.92.91-1.43,0-.56-.43-.91-1.01-.91s-1,.38-.99.99h-1.26c0-1.25.92-2.04,2.26-2.04s2.28.78,2.28,1.88c0,.73-.36,1.32-1.67,2.51l-.97.94v.04h2.73v1.09h-4.57v-.96Z"/>
      <path class="st0" d="M181.95,104.19c0-2.09.97-3.28,2.56-3.28s2.56,1.2,2.56,3.28c0,2.1-.96,3.32-2.56,3.32-1.6,0-2.56-1.22-2.56-3.32ZM184.51,106.4c.74,0,1.21-.74,1.21-2.22,0-1.46-.48-2.19-1.21-2.19s-1.21.74-1.21,2.19c0,1.48.47,2.22,1.21,2.22Z"/>
      <path class="st0" d="M190.5,107.37h-1.33v-5.11h-.04l-1.46.92v-1.18l1.58-1h1.25v6.37Z"/>
      <path class="st0" d="M191.68,105.57h1.34c.02.47.48.78,1.1.78s1.09-.35,1.09-.87c0-.52-.46-.89-1.21-.89h-.59v-.98h.59c.63,0,1.07-.34,1.07-.85,0-.49-.37-.82-.94-.82s-1.02.31-1.04.8h-1.27c.02-1.1,1.01-1.86,2.32-1.86s2.21.79,2.21,1.79c0,.72-.49,1.22-1.21,1.35v.05c.94.12,1.46.68,1.45,1.48,0,1.09-1.03,1.87-2.46,1.87s-2.41-.77-2.43-1.88Z"/>
    </g>
    <g>
      <path class="st0" d="M151.55,86.07l2.36,5.76h.1l2.36-5.76h2.18v8.5h-1.71v-5.57h-.07l-2.22,5.53h-1.18l-2.22-5.55h-.07v5.59h-1.71v-8.5h2.17Z"/>
      <path class="st0" d="M160.62,85.59c.52,0,.95.4.95.88s-.43.88-.95.88-.95-.39-.95-.88.43-.88.95-.88ZM159.75,88.19h1.74v6.37h-1.74v-6.37Z"/>
      <path class="st0" d="M164.39,94.57h-1.74v-6.37h1.66v1.12h.07c.29-.74.97-1.2,1.92-1.2,1.33,0,2.2.91,2.2,2.4v4.06h-1.74v-3.76c0-.79-.42-1.26-1.14-1.26s-1.22.49-1.22,1.32v3.69Z"/>
      <path class="st0" d="M169.64,86.07h1.74v4.56h.1l2.07-2.44h2l-2.38,2.76,2.5,3.62h-2.04l-1.76-2.59-.49.55v2.04h-1.74v-8.5Z"/>
      <path class="st0" d="M176.39,96.93v-1.35c.22.02.49.02.71.02.35,0,.63-.03.84-.58l.1-.27-2.29-6.55h1.83l1.34,4.7h.07l1.35-4.7h1.84l-2.49,7.08c-.36,1.03-1.06,1.69-2.4,1.69-.34,0-.66,0-.88-.03Z"/>
      <path class="st0" d="M182.35,91.41c0-1.97,1.22-3.3,3.08-3.3,1.67,0,2.99,1.06,2.99,3.23v.49h-4.36c0,.97.57,1.56,1.47,1.56.6,0,1.02-.26,1.2-.63h1.65c-.25,1.17-1.3,1.94-2.88,1.94-1.96,0-3.15-1.26-3.15-3.28ZM186.79,90.74c0-.77-.54-1.33-1.32-1.33s-1.36.6-1.4,1.33h2.72Z"/>
      <path class="st0" d="M189.07,91.41c0-1.98,1.2-3.3,3.13-3.3s3.12,1.32,3.12,3.3-1.2,3.29-3.12,3.29-3.13-1.32-3.13-3.29ZM192.21,93.34c.89,0,1.35-.83,1.35-1.95s-.46-1.96-1.35-1.96-1.37.84-1.37,1.96.46,1.95,1.37,1.95Z"/>
      <path class="st0" d="M197.97,94.57h-1.74v-6.37h1.66v1.12h.08c.29-.74.97-1.2,1.92-1.2,1.33,0,2.2.91,2.2,2.4v4.06h-1.74v-3.76c0-.79-.42-1.26-1.14-1.26s-1.22.49-1.22,1.32v3.69Z"/>
      <path class="st0" d="M203.14,95.09h1.71c.1.51.58.74,1.27.74.81,0,1.35-.34,1.35-1.22v-1.17h-.08c-.24.52-.8,1.04-1.82,1.04-1.44,0-2.59-1.01-2.59-3.13s1.18-3.23,2.59-3.23c1.08,0,1.59.64,1.82,1.15h.07v-1.07h1.72v6.44c0,1.63-1.28,2.46-3.1,2.46s-2.84-.79-2.94-2ZM206.11,93.17c.86,0,1.36-.68,1.36-1.81s-.49-1.86-1.36-1.86-1.36.76-1.36,1.86.48,1.81,1.36,1.81Z"/>
      <path class="st0" d="M212.97,86.07h1.76v3.77h.11l3.09-3.77h2.12l-3.17,3.81,3.2,4.69h-2.12l-2.35-3.51-.89,1.08v2.43h-1.76v-8.5Z"/>
      <path class="st0" d="M222.78,90.82c.45-.03,1.32-.07,1.58-.07v-.51c0-.54-.37-.85-1.01-.85-.6,0-.97.27-1.07.71h-1.65c.1-1.11,1.06-1.98,2.76-1.98,1.39,0,2.7.63,2.7,2.16v4.3h-1.65v-.88h-.05c-.31.59-.92,1-1.86,1-1.22,0-2.12-.64-2.12-1.9,0-1.43,1.15-1.89,2.37-1.97ZM223.02,93.48c.79,0,1.35-.52,1.34-1.19v-.46c-.26.01-1.01.05-1.31.08-.61.05-.99.34-.99.83s.39.75.95.75Z"/>
      <path class="st0" d="M228.96,94.57h-1.74v-6.37h1.66v1.12h.08c.29-.74.97-1.2,1.92-1.2,1.33,0,2.2.91,2.2,2.4v4.06h-1.74v-3.76c0-.79-.42-1.26-1.14-1.26s-1.22.49-1.22,1.32v3.69Z"/>
      <path class="st0" d="M234.13,95.09h1.71c.1.51.58.74,1.27.74.81,0,1.35-.34,1.35-1.22v-1.17h-.08c-.24.52-.8,1.04-1.82,1.04-1.44,0-2.59-1.01-2.59-3.13s1.18-3.23,2.59-3.23c1.08,0,1.59.64,1.82,1.15h.07v-1.07h1.72v6.44c0,1.63-1.28,2.46-3.1,2.46s-2.84-.79-2.94-2ZM237.1,93.17c.86,0,1.36-.68,1.36-1.81s-.49-1.86-1.36-1.86-1.36.76-1.36,1.86.48,1.81,1.36,1.81Z"/>
    </g>
    <g>
      <g>
        <path class="st2" d="M173.59,240.25v5.61h-3.6v-5.61h1.14v1.45h1.3v-1.45h1.16ZM172.42,244.69v-1.71h-1.3v1.71h1.3ZM176.4,242.13h-.85v-2.66h-1.18v8.04h1.2l-.02-4.14h.85v4.14h1.1v-8.04h-1.1v2.66Z"/>
        <path class="st2" d="M179.56,241.09v1.54h2.98v.99h-4.18v-3.64h3.98v1.1h-2.79ZM178.91,245.38h4.38v-.43h-4.38v-.76h5.69v2.05h-4.5v.43h4.5v.87h-5.68v-2.15ZM185.5,242.38h-.88v1.48h-1.2v-4.36h1.2v1.67h.88v1.21Z"/>
        <path class="st2" d="M190.72,242.13v5.28h-.99v-1.16c-1.05.97-3.8.89-3.8.89v-.92c1.7.13,3.4-.42,3.78-.57v-3.53h1.01Z"/>
        <path class="st2" d="M187.99,242.43h-.89c-.55,0-.95.42-.95.93v.99c0,.51.46.86.95.86h.82c.62,0,1.01-.36,1.01-.93v-.93c0-.52-.37-.93-.93-.93M188.09,244.11c0,.22-.17.39-.39.39h-.29c-.22,0-.43-.17-.43-.39v-.57c0-.22.21-.39.43-.39h.29c.22,0,.39.17.39.39v.57Z"/>
        <path class="st2" d="M195.67,240.01v3.92h-4.04v-3.92h4.04ZM192.35,247.53v-2.69h1.19v1.56h4.5v1.14h-5.69ZM192.78,241.11v1.72h1.74v-1.72h-1.74ZM196.71,239.51v5.17h1.24v-5.17h-1.24Z"/>
        <path class="st2" d="M205.53,243.15v1.08h-6.9v-1.08h2.8v-.82h1.31v.82h2.79Z"/>
        <path class="st2" d="M205.11,244.77v1.12c0,.96-.39,1.66-.39,1.66h-1.19c.46-.86.4-1.67.4-1.67h-4.91v-1.11h6.09Z"/>
        <path class="st2" d="M199.07,239.71h6.01v.98h-2.01c.49.72,1.25,1.06,1.96,1.25v.74c-1.37-.15-2.28-.67-2.96-1.41-.7.81-2.08,1.33-2.97,1.53v-.81c.95-.28,1.8-.93,1.91-1.3h-1.94v-.98Z"/>
      </g>
      <path class="st2" d="M231.29,239.31h1.2l.13.12v-.12h1.44l.28.28v-.28h5.39l.3.29v-.28h5.39l.61.62v.91h-.4l.4.37v1.01h-.54l.54.49v.81h-.47l.47.46v2.19h-.58l.58.58v1.09h-5.11l-.58-.58v.58h-2.02l-.62-.56v-2.68h-.73l-.37-.52-.22-.76-.37,1.28h-1.01l-.35-.35v.35h-1.02l1.02,1v1.26l-.94.99h-3.05l-1.56-1.57h-.75l.58.85v.72h-5.42l-.56-.56v.56h-1.37l-.56-.56v-2.29l-.49.47h-2.03l-1.22-1.25h0s0,1.25,0,1.25h-1.94v2.38h-1.12l-.84-.56v-1.82h-1.44l-.54-.46v-1.44h1.19l-1.19-1.19v-2.07l1-.99h3.39l1,.99.28.43v-.43l1-.99h1.83l1,.99.13.19v-1.19h1.44l.28.42v-.4h1.19v-.47h1.44v.47h1.2l.13.18v-.25h1.44l.52.61v-.57h1.19v-.47h1.44v.47ZM211.62,244.81h1.98v2.28h1.02v-2.28h1.98v-1.02h-4.97v1.02ZM221.25,247.09h1.02v-4.16h.37v-1.02h-.37v-2.38h-1.02v7.57ZM222.96,247.09h4.97v-1.02h-3.95v-.93h-1.02v1.95ZM237.9,241.11h-.45v1.02h.45v4.95h.64v-7.57h-.64v1.59ZM238.87,247.08h.64v-7.57h-.64v7.57ZM229.32,245.17v1.04l.88.88h2.77l.88-.88v-1.04l-.88-.88h-2.77l-.88.88ZM240.22,244.29h3.95v.58h-3.95v2.19h4.97v-.81h-3.95v-.79h3.95v-1.98h-4.97v.81ZM232.82,246.06h-2.48v-.75h2.48v.75ZM222.96,241.39v2.54l.88.88h1.66l.88-.88v-2.54l-.88-.88h-1.66l-.87.88ZM217.29,240.4v3.53l.88.88h1.66l.88-.88v-3.53l-.88-.88h-1.66l-.88.88ZM226.92,244.77h1.02v-1.89h.4v-1.02h-.4v-2.38h-1.02v5.29ZM228.87,241.36v1.67l.88.88h1.66l.88-.88v-1.67l-.88-.88h-1.66l-.88.88ZM234.54,240.12h.94l-1.06,3.77h.81l.76-2.71.76,2.71h.81l-1.06-3.77h1.01v-.6h-2.96v.6ZM232.82,240.48h-.24v1.02h.24v.66h-.24v1.02h.24v.7h1.02v-4.37h-1.02v.96ZM219.68,243.79h-1.37v-3.24h1.37v3.24ZM225.35,243.79h-1.37v-2.25h1.37v2.25ZM211.62,240.4v1.9l.88.88h3.22l.88-.88v-1.9l-.88-.88h-3.22l-.88.88ZM231.26,242.89h-1.37v-1.38h1.37v1.38ZM240.22,242.82h4.97v-.6h-4.97v.6ZM215.58,242.16h-2.93v-1.61h2.93v1.61ZM240.22,241.52h4.97v-.81h-3.95v-.58h3.95v-.6h-4.97v1.98ZM224.15,239.55h-1.19v.6h3.41v-.6h-1.2v-.47h-1.02v.47ZM230.06,239.52h-1.19v.6h3.41v-.6h-1.2v-.47h-1.02v.47Z"/>
    </g>
    <g>
      <path class="st0" d="M155.33,56.25h-7.94v-5.74h15.97c0,9.71-6.48,14.91-15.25,16.5l-1.92-5.95c4.81-.74,8.34-2.91,9.15-4.81ZM148.47,72.34c0-3.66,3.53-6.39,12.06-6.39s12.06,2.73,12.06,6.39-3.53,6.39-12.06,6.39-12.06-2.73-12.06-6.39ZM165.28,72.24c0-.81-1.24-1.24-4.74-1.24s-4.74.43-4.74,1.24,1.24,1.24,4.74,1.24,4.74-.43,4.74-1.24ZM165.37,49.39h6.7v4.68h3.19v6.2h-3.19v5.12h-6.7v-16Z"/>
      <path class="st0" d="M178.13,50.51h16.5v15.87h-16.5v-15.87ZM180.34,68.28h6.7v4.28h17.33v5.86h-24.03v-10.14ZM188.24,60.74v-4.59h-3.72v4.59h3.72ZM197.05,49.39h6.7v20.34h-6.7v-20.34Z"/>
      <path class="st0" d="M226.86,64.31h-3.81v-5.43h3.81v-1.24h-3.81v-3.07c-1.49,7.07-7.01,11.1-14.23,12.43l-1.92-5.92c4.62-.71,7.94-2.88,8.65-4.84h-7.44v-5.74h15.35l-.06,1.71h3.47v-2.82h6.7v16h-6.7v-1.08ZM209.65,72.34c0-3.66,3.54-6.39,12.22-6.39s12.22,2.73,12.22,6.39-3.53,6.39-12.22,6.39-12.22-2.73-12.22-6.39ZM226.77,72.24c0-.81-1.24-1.24-4.9-1.24s-4.9.43-4.9,1.24,1.24,1.24,4.9,1.24,4.9-.43,4.9-1.24Z"/>
    </g>
  </g>
  <g id="_재단선" data-name="재단선">
    <rect class="st4" x="131.47" y="24.02" width="153.07" height="243.78"/>
  </g>
</svg>