<?xml version="1.0" encoding="UTF-8"?>
<svg xmlns="http://www.w3.org/2000/svg" width="110mm" height="104mm" version="1.1" viewBox="0 0 311.811 294.803">
  <!-- Generator: Adobe Illustrator 30.4.0, SVG Export Plug-In . SVG Version: 2.1.4 Build 226)  -->
  <g id="_가이드" data-name="가이드">
    <text transform="translate(18.909 34.681)" fill="#231815" font-family="PretendardVariable-ExtraBold, &apos;PretendardVariable ExtraBold&apos;" font-size="11" font-variation-settings="&apos;" font-weight="700" letter-spacing="-.015em"><tspan x="0" y="0">우아한형제들</tspan><tspan x="0" y="14">사원증 기본형</tspan></text>
    <text transform="translate(18.909 64.281)" fill="#231815" font-size="11"><tspan x="0" y="0" font-family="PretendardVariable-SemiBold, &apos;PretendardVariable SemiBold&apos;" font-weight="600" letter-spacing="-.015em">(</tspan><tspan x="5.335" y="0" font-family="PretendardVariable-ExtraBold, &apos;PretendardVariable ExtraBold&apos;" font-variation-settings="&apos;" font-weight="700" letter-spacing="-.015em">54x86mm</tspan><tspan x="59.729" y="0" font-family="PretendardVariable-SemiBold, &apos;PretendardVariable SemiBold&apos;" font-weight="600" letter-spacing="-.015em">)</tspan></text>
  </g>
  <g id="_인쇄영역" data-name="인쇄영역">
    <g id="_x3C_Rectangle_x3E_">
      <path id="_x3C_Rectangle_x3E_1" data-name="_x3C_Rectangle_x3E_" d="M131.465,24.021v243.78h153.071V24.021h-153.071ZM207.94,220.239c-28.18,0-51.024-22.844-51.024-51.024s22.844-51.024,51.024-51.024,51.023,22.844,51.023,51.024-22.844,51.024-51.023,51.024Z" fill="#2bd8c2"/>
      <circle cx="207.94" cy="169.215" r="51.024" transform="translate(-6.656 329.906) rotate(-75.964)" fill="#fff"/>
    </g>
    <g id="date">
      <text transform="translate(148.659 107.367)" fill="#231815" font-family="Pretendard-Bold-KSCpc-EUC-H, Pretendard" font-size="9" font-weight="700"><tspan x="0" y="0" letter-spacing="-.025em">18</tspan><tspan x="9.558" y="0" letter-spacing="-.005em"> </tspan><tspan x="11.583" y="0" letter-spacing="-.025em">JAN</tspan><tspan x="28.691" y="0" letter-spacing="-.01em"> </tspan><tspan x="30.672" y="0" letter-spacing="-.025em">2016</tspan></text>
    </g>
    <text id="nameen" transform="translate(148.659 94.569)" fill="#231815" font-family="Pretendard-Bold-KSCpc-EUC-H, Pretendard" font-size="12" font-weight="700" letter-spacing="-.015em"><tspan x="0" y="0">Baemin Kang</tspan></text>
    <text id="namekr" transform="translate(144.878 77.05)" fill="#231815" font-family="BAEMINWORK-KSCpc-EUC-H, &apos;BAEMIN WORK&apos;" font-size="31"><tspan x="0" y="0" letter-spacing="-.025em">강</tspan><tspan x="30.237" y="0" letter-spacing="-.029em">배</tspan><tspan x="60.323" y="0" letter-spacing="-.015em">민</tspan></text>
    <g id="mask">
      <path id="cliping" d="M207.94,220.239c28.18,0,51.024-22.844,51.024-51.024s-22.844-51.024-51.024-51.024-51.024,22.844-51.024,51.024,22.844,51.024,51.024,51.024Z" fill="#fff"/>
    </g>
    <g>
      <g>
        <path d="M173.587,240.248v5.608h-3.596v-5.608h1.135v1.45h1.298v-1.45h1.163ZM172.418,244.687v-1.714h-1.298v1.714h1.298ZM176.402,242.131h-.854v-2.658h-1.18v8.041h1.203l-.022-4.136h.854v4.136h1.096v-8.041h-1.096v2.658Z" fill="#1a0b08"/>
        <path d="M179.565,241.09v1.54h2.984v.995h-4.181v-3.641h3.984v1.101h-2.787v.006ZM178.907,245.383h4.383v-.433h-4.383v-.764h5.692v2.051h-4.495v.427h4.495v.871h-5.681l-.011-2.152ZM185.504,242.382h-.877v1.483h-1.197v-4.36h1.197v1.669h.877v1.208Z" fill="#1a0b08"/>
        <path d="M190.718,242.126v5.282h-.995v-1.158c-1.045.972-3.799.893-3.799.893v-.922c1.703.129,3.4-.421,3.782-.568v-3.529h1.011Z" fill="#1a0b08"/>
        <path d="M187.993,242.428h-.893c-.545,0-.95.416-.95.933v.995c0,.511.461.86.95.86h.82c.618,0,1.006-.36,1.006-.927v-.927c0-.517-.365-.933-.927-.933M188.094,244.108c0,.225-.169.393-.393.393h-.292c-.225,0-.427-.169-.427-.393v-.568c0-.219.208-.388.427-.388h.292c.225,0,.393.169.393.388v.568Z" fill="#1a0b08"/>
        <path d="M195.672,240.005v3.922h-4.04v-3.922h4.04ZM192.345,247.535v-2.692h1.191v1.556h4.501v1.141h-5.687l-.006-.006ZM192.784,241.112v1.719h1.736v-1.719h-1.736ZM196.706,239.505v5.17h1.236v-5.17h-1.236Z" fill="#1a0b08"/>
        <path d="M205.525,243.151v1.085h-6.9v-1.085h2.798v-.82h1.315v.82h2.787Z" fill="#1a0b08"/>
        <path d="M205.114,244.766v1.118c0,.955-.393,1.658-.393,1.658h-1.186c.455-.86.405-1.669.405-1.669h-4.911v-1.107h6.086Z" fill="#1a0b08"/>
        <path d="M199.068,239.707h6.007v.978h-2.006c.494.725,1.253,1.056,1.961,1.253v.742c-1.371-.146-2.276-.674-2.956-1.41-.702.809-2.079,1.332-2.967,1.534v-.815c.95-.281,1.798-.933,1.905-1.298h-1.944v-.983Z" fill="#1a0b08"/>
      </g>
      <path d="M231.289,239.312h1.199l.126.12v-.12h1.436l.282.28v-.28h5.388l.296.292v-.276h5.389l.605.622v.908h-.4l.4.371v1.014h-.545l.545.491v.807h-.475l.475.457v2.191h-.578l.578.58v1.087h-5.107l-.578-.577v.577h-2.02l-.618-.565v-2.681h-.729l-.366-.515-.215-.764-.367,1.28h-1.008l-.346-.35v.35h-1.025l1.025,1.001v1.259l-.937.987h-3.046l-1.559-1.566h-.745l.575.847v.719h-5.417l-.562-.559v.559h-1.369l-.556-.558v-2.287l-.486.468h-2.032l-1.223-1.246-.004-.005v1.251h-1.939v2.376h-1.122l-.84-.558v-1.818h-1.438l-.538-.46v-1.437h1.193l-1.193-1.194v-2.075l.999-.995h3.393l.997.995.282.43v-.43l.998-.995h1.831l.997.995.126.193v-1.189h1.436l.282.425v-.4h1.19v-.471h1.438v.471h1.198l.126.184v-.253h1.436l.518.606v-.568h1.189v-.471h1.437v.471ZM211.625,244.813h1.976v2.278h1.022v-2.278h1.976v-1.022h-4.974v1.022ZM221.246,247.091h1.023v-4.164h.37v-1.023h-.37v-2.379h-1.023v7.566ZM222.965,247.091h4.974v-1.023h-3.952v-.929h-1.022v1.951ZM237.897,241.107h-.451v1.022h.451v4.954h.638v-7.566h-.638v1.589ZM238.875,247.084h.638v-7.566h-.638v7.566ZM229.321,245.167v1.04l.878.876h2.769l.876-.876v-1.04l-.876-.876h-2.771l-.876.876ZM240.224,244.288h3.953v.578h-3.953v2.193h4.975v-.807h-3.953v-.785h3.953v-1.984h-4.975v.805ZM232.821,246.06h-2.478v-.747h2.478v.747ZM222.965,241.393v2.545l.876.876h1.659l.876-.876v-2.545l-.876-.877h-1.661l-.874.877ZM217.294,240.402v3.535l.877.876h1.658l.877-.876v-3.535l-.877-.876h-1.658l-.877.876ZM226.918,244.769h1.021v-1.887h.397v-1.023h-.397v-2.378h-1.021v5.289ZM228.869,241.363v1.671l.876.876h1.66l.877-.876v-1.671l-.877-.877h-1.66l-.876.877ZM234.539,240.118h.937l-1.061,3.769h.807l.764-2.712.764,2.712h.808l-1.062-3.769h1.006v-.6h-2.964v.6ZM232.821,240.484h-.241v1.024h.241v.655h-.241v1.023h.241v.699h1.023v-4.366h-1.023v.965ZM219.684,243.79h-1.367v-3.243h1.367v3.243ZM225.354,243.79h-1.367v-2.251h1.367v2.251ZM211.625,240.402v1.903l.876.877h3.222l.876-.876v-1.903l-.876-.876h-3.222l-.876.876ZM231.258,242.888h-1.366v-1.38h1.366v1.38ZM240.224,242.816h4.973v-.599h-4.973v.599ZM215.577,242.157h-2.93v-1.611h2.93v1.611ZM240.224,241.519h4.975v-.806h-3.953v-.578h3.953v-.6h-4.975v1.985ZM224.154,239.549h-1.189v.599h3.412v-.599h-1.2v-.471h-1.022v.471ZM230.06,239.518h-1.191v.6h3.413v-.6h-1.2v-.469h-1.022v.469Z" fill="#1a0b08"/>
    </g>
  </g>
  <g id="_재단선" data-name="재단선">
    <rect x="131.465" y="24.021" width="153.071" height="243.78" fill="none" stroke="#e4007f" stroke-width=".3"/>
  </g>
</svg>